<?xml version="1.0" encoding="UTF-8" standalone="no"?>
<svg
   width="175.7519989013672"
   height="36"
   viewBox="0 0 175.7519989013672 36"
   class="css-1j8o68f"
   version="1.1"
   id="svg9"
   sodipodi:docname="logo.svg"
   xml:space="preserve"
   inkscape:export-filename="logo.png"
   inkscape:export-xdpi="96"
   inkscape:export-ydpi="96"
   inkscape:version="1.2.1 (9c6d41e410, 2022-07-14)"
   xmlns:inkscape="http://www.inkscape.org/namespaces/inkscape"
   xmlns:sodipodi="http://sodipodi.sourceforge.net/DTD/sodipodi-0.dtd"
   xmlns="http://www.w3.org/2000/svg"
   xmlns:svg="http://www.w3.org/2000/svg"
   xmlns:rdf="http://www.w3.org/1999/02/22-rdf-syntax-ns#"
   xmlns:cc="http://creativecommons.org/ns#"
   xmlns:dc="http://purl.org/dc/elements/1.1/"><metadata
     id="metadata13"><rdf:RDF><cc:Work
         rdf:about=""><dc:format>image/svg+xml</dc:format><dc:type
           rdf:resource="http://purl.org/dc/dcmitype/StillImage" /></cc:Work></rdf:RDF></metadata><sodipodi:namedview
     pagecolor="#ffffff"
     bordercolor="#666666"
     borderopacity="1"
     objecttolerance="10"
     gridtolerance="10"
     guidetolerance="10"
     inkscape:pageopacity="0"
     inkscape:pageshadow="2"
     inkscape:window-width="1304"
     inkscape:window-height="745"
     id="namedview11"
     inkscape:showpageshadow="2"
     inkscape:pagecheckerboard="0"
     inkscape:deskcolor="#d1d1d1"
     showgrid="false"
     inkscape:zoom="3.3086395"
     inkscape:cx="86.742602"
     inkscape:cy="29.619425"
     inkscape:window-x="-8"
     inkscape:window-y="-8"
     inkscape:window-maximized="1"
     inkscape:current-layer="svg7645" /><defs
     id="SvgjsDefs3689" /><g
     viewBox="0 0 640 400"
     matcher="0.05224043243772836"
     id="g7653"
     transform="matrix(0.27293483,0,0,0.09215811,0.42623628,0.00343688)"><g
       matcher="0.05224043243772836"
       id="g7651"><g
         matcher="0.05224043243772836"
         id="g7649"><g
           matcher="0.05224043243772836"
           id="g7647"><svg
             viewBox="0 0 640 400"
             data-background-color="#8abcd7"
             preserveAspectRatio="xMidYMid"
             height="400"
             width="640"
             version="1.1"
             id="svg7645"><g
               id="g8596"
               transform="matrix(1.0043858,0,0,1.094028,-0.28317945,-18.361714)"
               style="fill:#4d4d4d"><path
                 d="m 528.15977,64.097818 c -2.84879,0 -5.17094,5.975492 -5.17094,13.361855 0,7.393908 2.31928,13.399543 5.17094,13.399543 2.84299,0 5.16507,-6.005635 5.16507,-13.399543 -0.002,-7.384439 -2.31703,-13.361855 -5.16507,-13.361855 m 106.70651,4.255264 V 14.988764 H 488.20669 v 53.364318 h 8.51728 V 37.072411 h 59.60669 V 184.27133 h -7.36792 c 9.91075,-80.21743 -44.87378,-113.187679 -44.87378,0 h -7.36499 V 96.872423 h -8.51728 V 238.02044 h 8.51728 v -31.72581 h 59.60669 v 147.19903 h -7.36792 v -56.27672 h -44.87378 v 56.27672 h -7.36499 v -86.94628 h -8.51728 V 375.56966 H 634.86628 V 266.54738 h -8.51442 v 86.94628 h -8.78499 v -56.27672 h -44.87669 v 56.27672 h -7.84225 V 206.29463 h 61.50393 v 31.72581 h 8.51442 V 96.872423 h -8.51442 v 87.398907 h -8.78499 V 128.0098 h -44.87669 v 56.26153 h -7.84225 V 37.072411 h 61.50393 V 68.353082 Z M 56.508765,235.14852 v 81.19368 c 0,3.54069 -0.28073,5.99002 -0.841823,7.34813 -0.579908,1.35808 -1.552689,2.03712 -2.918265,2.03712 v 0 H 38.157444 c -1.365654,0 -2.338402,-0.67913 -2.918295,-2.03712 -0.561247,-1.35811 -0.841824,-3.80744 -0.841824,-7.34813 v 0 -80.1024 L 20.760087,195.20645 C 17.50509,185.36043 14.773891,176.53287 12.566493,168.724 10.359093,160.91497 8.7035624,152.83926 7.5999017,144.4968 6.4962089,136.1058 5.944294,126.28405 5.944294,115.03137 v 0 -15.569384 c 0,-3.443677 0.2340733,-6.062861 0.7015355,-7.857449 v 0 C 8.7035624,83.795548 11.584381,75.57434 15.288359,66.940894 v 0 c 0.67345,-1.406591 1.281351,-2.109878 1.823935,-2.109878 v 0 c 0.561154,0 1.131731,0.703384 1.71164,2.109878 v 0 c 2.020333,4.510722 3.71331,8.803228 5.078886,12.877415 1.365577,4.074288 2.553418,8.002992 3.563599,11.786228 v 0 c 0.467659,1.891567 0.701535,4.510751 0.701535,7.857449 v 0 15.423884 c 0,7.71191 0.860531,16.24843 2.581578,25.60947 1.739679,9.31255 4.667337,19.59514 8.782818,30.84777 v 0 l 6.650239,18.11578 6.509949,-18.11578 c 3.685271,-10.28259 6.500602,-20.10441 8.446086,-29.46545 1.945556,-9.36107 2.918314,-18.30981 2.918314,-26.84629 v 0 -15.569384 c 0,-3.443677 0.224494,-6.062861 0.67345,-7.857449 v 0 c 1.964216,-7.663445 4.751531,-15.884654 8.361945,-24.663643 v 0 c 0.692087,-1.406591 1.262689,-2.109878 1.711602,-2.109878 v 0 c 0.542534,0 1.113029,0.703384 1.711719,2.109878 v 0 c 1.926783,4.510722 3.563603,8.803228 4.910493,12.877415 1.346911,4.074288 2.497374,8.002992 3.451421,11.786228 v 0 c 0.449137,1.891567 0.673428,4.510751 0.673428,7.857449 v 0 15.569384 c 0,13.04727 -1.094339,25.51244 -3.283039,37.39564 -2.1887,11.93168 -5.911296,25.46392 -11.167907,40.59682 v 0 z M 153.51274,85.056674 v 0 c 2.50671,9.11847 5.07888,20.880476 7.71652,35.285766 2.61893,14.35685 5.16311,30.1202 7.63238,47.29025 2.46928,17.16993 4.6954,34.72793 6.67833,52.67393 1.98292,17.9461 3.61045,35.21304 4.88248,51.80099 1.29071,16.53946 2.02969,31.28427 2.21674,44.23459 v 0 c 0.0344,6.25681 -1.06627,9.38525 -3.31108,9.38525 v 0 h -16.55554 c -2.15128,0 -3.27369,-2.78891 -3.36716,-8.36675 v 0 c -0.18702,-13.24122 -1.01019,-29.34416 -2.46932,-48.30874 v 0 h -37.4042 c -1.27207,18.47955 -2.0016,34.58248 -2.18874,48.30874 v 0 c -0.0938,5.57784 -1.2627,8.36675 -3.50747,8.36675 v 0 H 97.616913 c -0.82312,0 -1.505948,-0.63046 -2.048429,-1.89165 -0.561214,-1.21256 -0.813721,-3.37088 -0.757609,-6.4751 v 0 c 0.224495,-13.14421 0.963403,-28.08309 2.216735,-44.81654 1.253354,-16.78193 2.890215,-34.17017 4.91055,-52.1647 2.00162,-17.9946 4.2371,-35.60109 6.70634,-52.81955 2.46932,-17.21851 5.02278,-33.00619 7.66043,-47.363 2.65638,-14.30831 5.2379,-26.021766 7.74464,-35.140236 v 0 c 1.32816,-4.850306 2.73115,-8.415229 4.20903,-10.694885 1.49649,-2.231126 3.33917,-3.346667 5.52784,-3.346667 v 0 h 9.84911 c 2.24481,0 4.12483,1.115583 5.64012,3.346667 1.4965,2.279656 2.90889,5.844579 4.23707,10.694885 z M 138.4444,127.1813 h -0.4206 c -3.01183,12.4167 -5.7711,27.25862 -8.27781,44.52557 -2.50665,17.31549 -4.67665,35.09181 -6.50992,53.3288 v 0 h 29.71571 c -1.9081,-18.23699 -4.1155,-36.01331 -6.62218,-53.3288 -2.52546,-17.26695 -5.15374,-32.10887 -7.88496,-44.52557 z m 123.09998,45.47133 V 99.461986 c 0,-3.443677 0.2245,-6.062861 0.67346,-7.857449 v 0 c 2.05773,-7.808989 4.93859,-16.030197 8.64253,-24.663643 v 0 c 0.69211,-1.406591 1.28143,-2.109878 1.76775,-2.109878 v 0 c 0.56127,0 1.13177,0.703384 1.71172,2.109878 v 0 c 2.02032,4.510722 3.71326,8.803228 5.07888,12.877415 1.36561,4.074288 2.55347,8.002992 3.56365,11.786228 v 0 c 0.44913,1.891567 0.67345,4.510751 0.67345,7.857449 v 0 216.880214 c 0,3.54069 -0.28073,5.99002 -0.84181,7.34813 -0.57996,1.35808 -1.55274,2.03712 -2.91828,2.03712 v 0 h -14.59134 c -1.36555,0 -2.33826,-0.67913 -2.91819,-2.03712 -0.56119,-1.35811 -0.84182,-3.80744 -0.84182,-7.34813 v 0 -94.3622 h -40.68723 v 94.3622 c 0,3.54069 -0.29031,5.99002 -0.86987,7.34813 -0.5612,1.35808 -1.53394,2.03712 -2.91827,2.03712 v 0 h -14.59128 c -1.36557,0 -2.32897,-0.67913 -2.89017,-2.03712 -0.57991,-1.35811 -0.86994,-3.80744 -0.86994,-7.34813 v 0 -235.941792 c 0,-3.540707 0.29029,-5.990087 0.86994,-7.348181 0.5612,-1.358096 1.5246,-2.037105 2.89017,-2.037105 v 0 h 14.59128 c 1.38433,0 2.35707,0.67895 2.91827,2.037105 0.57991,1.358036 0.86987,3.807474 0.86987,7.348181 v 0 92.252222 z m 66.1659,-73.190644 V 316.3422 c 0,3.54069 -0.28074,5.99002 -0.84182,7.34813 -0.57991,1.35808 -1.55262,2.03712 -2.91824,2.03712 v 0 h -14.5913 c -1.3843,0 -2.35703,-0.67913 -2.91827,-2.03712 -0.57994,-1.35811 -0.8699,-3.80744 -0.8699,-7.34813 v 0 -216.880214 c 0,-3.443677 0.23369,-6.062861 0.70153,-7.857449 v 0 c 2.05773,-7.808989 4.92927,-16.030197 8.61447,-24.663643 v 0 c 0.69219,-1.406591 1.29076,-2.109878 1.79588,-2.109878 v 0 c 0.54247,0 1.11306,0.703384 1.71165,2.109878 v 0 c 2.00163,4.510722 3.6946,8.803228 5.07888,12.877415 1.36566,4.074288 2.5535,8.002992 3.5637,11.786228 v 0 c 0.44913,1.891567 0.67342,4.510751 0.67342,7.857449 z m 74.80841,-14.405312 v 0 c 2.50666,9.11847 5.06956,20.880476 7.68846,35.285766 2.63769,14.35685 5.19118,30.1202 7.66043,47.29025 2.4506,17.16993 4.67667,34.72793 6.67834,52.67393 1.98292,17.9461 3.61038,35.21304 4.88245,51.80099 1.29077,16.53946 2.0203,31.28427 2.18871,44.23459 v 0 c 0.0562,6.25681 -1.03827,9.38525 -3.28307,9.38525 v 0 h -16.5835 c -2.13259,0 -3.24569,-2.78891 -3.33923,-8.36675 v 0 c -0.18702,-13.24122 -1.0101,-29.34416 -2.46926,-48.30874 v 0 h -37.40423 c -1.29073,18.47955 -2.02029,34.58248 -2.18861,48.30874 v 0 c -0.0938,5.57784 -1.26274,8.36675 -3.50757,8.36675 v 0 h -16.21878 c -0.82312,0 -1.51525,-0.63046 -2.07647,-1.89165 -0.54246,-1.21256 -0.78569,-3.37088 -0.72958,-6.4751 v 0 c 0.22452,-13.14421 0.96337,-28.08309 2.21678,-44.81654 1.25336,-16.78193 2.88082,-34.17017 4.88248,-52.1647 2.0203,-17.9946 4.26514,-35.60109 6.73445,-52.81955 2.46929,-17.21851 5.02275,-33.00619 7.66043,-47.363 2.65631,-14.30831 5.23787,-26.021766 7.7446,-35.140236 v 0 c 1.3281,-4.850306 2.73113,-8.415229 4.209,-10.694885 1.47787,-2.231126 3.32042,-3.346667 5.52782,-3.346667 v 0 h 9.8492 c 2.24477,0 4.1155,1.115583 5.61198,3.346667 1.51524,2.279656 2.937,5.844579 4.26517,10.694885 z m -15.0683,42.124626 h -0.42117 c -3.01175,12.4167 -5.77101,27.25862 -8.27773,44.52557 -2.52539,17.31549 -4.69539,35.09181 -6.50998,53.3288 v 0 h 29.71576 c -1.90808,-18.23699 -4.12489,-36.01331 -6.65028,-53.3288 -2.50668,-17.26695 -5.12562,-32.10887 -7.85683,-44.52557 z m 124.8852,-58.511301 h 3.68399 v 52.738121 h -3.68399 z m 31.91312,53.039911 c -1.44915,-9.27253 -5.34847,-27.342357 -13.61263,-26.550138 -4.97009,0.47547 -5.84015,18.235758 -5.97986,26.550138 z m 52.51223,-57.612092 c -2.84878,0 -5.17086,5.975492 -5.17086,13.361855 0,7.393908 2.32496,13.399543 5.17086,13.399543 2.84588,0 5.16802,-6.005635 5.16802,-13.399543 0,-7.378821 -2.32214,-13.361855 -5.16802,-13.361855 m -15.82118,4.572181 h 3.68687 v 52.738121 h -3.68687 z m 31.91297,53.039911 c -1.44907,-9.27253 -5.35131,-27.342357 -13.61252,-26.550138 -4.97597,0.47547 -5.84315,18.235758 -5.98278,26.550138 z m -84.69296,111.59505 c -2.84879,0 -5.17094,5.98308 -5.17094,13.36939 0,7.39397 2.31928,13.39956 5.17094,13.39956 7.11797,0.61981 7.11797,-27.38867 0,-26.76895 m -15.82418,4.58727 h 3.68399 v 52.7457 h -3.68399 z m 31.91312,53.03235 c -1.44915,-9.265 -5.34847,-27.3348 -13.61263,-26.55013 -4.97009,0.46757 -5.84015,18.24336 -5.97986,26.55013 z m 52.51223,-57.61962 c -2.84878,0 -5.17086,5.98308 -5.17086,13.36939 0,7.39397 2.32496,13.39956 5.17086,13.39956 2.84588,0 5.16802,-6.00559 5.16802,-13.39956 0,-7.38631 -2.32214,-13.36939 -5.16802,-13.36939 m -15.82118,4.58727 h 3.68687 v 52.7457 h -3.68687 z m 31.91297,53.03235 c -1.44907,-9.265 -5.35131,-27.3348 -13.61252,-26.55013 -4.97597,0.46757 -5.84315,18.24336 -5.98278,26.55013 z"
                 style="fill:#4d4d4d;stroke-width:37.5752"
                 id="path8453" /><rect
                 style="fill:#4d4d4d;fill-opacity:1;stroke:none;stroke-width:7.70728;stroke-dasharray:none;stroke-opacity:1;stop-color:#000000"
                 id="rect8554"
                 width="21.924749"
                 height="255.09074"
                 x="451.02777"
                 y="78.808929"
                 ry="54.101665"
                 rx="10.504162" /></g><ellipse
               style="fill:#2ca02c;fill-opacity:1;stroke:none;stroke-width:8.97871;stroke-dasharray:none;stroke-opacity:1;stop-color:#000000"
               id="path8751"
               cx="529.83606"
               cy="155.74231"
               rx="5.3984141"
               ry="14.758069" /><ellipse
               style="fill:#37c837;fill-opacity:1;stroke:none;stroke-width:8.97871;stroke-dasharray:none;stroke-opacity:1;stop-color:#000000"
               id="path8805"
               cx="592.81763"
               cy="348.82703"
               rx="4.9831519"
               ry="15.987906" /><ellipse
               style="fill:#008080;fill-opacity:1;stroke:none;stroke-width:8.97871;stroke-dasharray:none;stroke-opacity:1;stop-color:#000000"
               id="path8807"
               cx="528.03662"
               cy="352.51654"
               rx="6.6442022"
               ry="18.857533" /><ellipse
               style="fill:#008080;fill-opacity:1;stroke:none;stroke-width:8.97871;stroke-dasharray:none;stroke-opacity:1;stop-color:#000000"
               id="path8809"
               cx="596.13965"
               cy="167.22081"
               rx="5.5368352"
               ry="18.037638" /></svg></g></g></g></g></svg>
