<?xml version="1.0" encoding="UTF-8" standalone="no"?>
<svg
   width="175.7519989013672"
   height="36"
   viewBox="0 0 175.7519989013672 36"
   class="css-1j8o68f"
   version="1.1"
   id="svg9"
   sodipodi:docname="logo.svg"
   xml:space="preserve"
   inkscape:export-filename="logo.png"
   inkscape:export-xdpi="96"
   inkscape:export-ydpi="96"
   inkscape:version="1.3.2 (091e20e, 2023-11-25, custom)"
   xmlns:inkscape="http://www.inkscape.org/namespaces/inkscape"
   xmlns:sodipodi="http://sodipodi.sourceforge.net/DTD/sodipodi-0.dtd"
   xmlns="http://www.w3.org/2000/svg"
   xmlns:svg="http://www.w3.org/2000/svg"
   xmlns:rdf="http://www.w3.org/1999/02/22-rdf-syntax-ns#"
   xmlns:cc="http://creativecommons.org/ns#"
   xmlns:dc="http://purl.org/dc/elements/1.1/"><metadata
     id="metadata13"><rdf:RDF><cc:Work
         rdf:about=""><dc:format>image/svg+xml</dc:format><dc:type
           rdf:resource="http://purl.org/dc/dcmitype/StillImage" /></cc:Work></rdf:RDF></metadata><sodipodi:namedview
     pagecolor="#ffffff"
     bordercolor="#666666"
     borderopacity="1"
     objecttolerance="10"
     gridtolerance="10"
     guidetolerance="10"
     inkscape:pageopacity="0"
     inkscape:pageshadow="2"
     inkscape:window-width="1366"
     inkscape:window-height="705"
     id="namedview11"
     inkscape:showpageshadow="2"
     inkscape:pagecheckerboard="0"
     inkscape:deskcolor="#d1d1d1"
     showgrid="false"
     inkscape:zoom="3.3086395"
     inkscape:cx="90.973949"
     inkscape:cy="-11.938442"
     inkscape:window-x="-8"
     inkscape:window-y="-8"
     inkscape:window-maximized="1"
     inkscape:current-layer="svg8" /><defs
     id="SvgjsDefs3689" /><g
     viewBox="0 0 640 400"
     matcher="0.05224043243772836"
     id="g7653"
     transform="matrix(0.27293483,0,0,0.09215811,0.42623628,0.00343688)"><g
       matcher="0.05224043243772836"
       id="g7651"><g
         matcher="0.05224043243772836"
         id="g7649"><g
           matcher="0.05224043243772836"
           id="g7647"><svg
             viewBox="0 0 640 400"
             data-background-color="#8abcd7"
             preserveAspectRatio="xMidYMid"
             height="400"
             width="640"
             version="1.1"
             id="svg7645"><g
               id="tight-bounds"
               transform="matrix(1.6138219,0,0,3.7780042,0.99614681,0.83555769)"><svg
                 viewBox="0 0 395.52 103.08244"
                 height="103.08244"
                 width="395.51999"
                 version="1.1"
                 id="svg8"><g
                   id="g8"
                   style="fill:#4d4d4d"><svg
                     viewBox="0 0 582.48481 151.81017"
                     height="103.08244"
                     width="395.51999"
                     version="1.1"
                     id="svg7"
                     style="fill:#4d4d4d"><g
                       id="g2"
                       style="fill:#4d4d4d"><rect
                         width="9.3454914"
                         height="104.1485"
                         x="153.15468"
                         y="23.830835"
                         fill="#000000"
                         opacity="1"
                         stroke-width="0"
                         stroke="transparent"
                         fill-opacity="1"
                         class="rect-i-0"
                         data-fill-palette-color="primary"
                         rx="1%"
                         id="i-0"
                         data-palette-color="#000000"
                         style="fill:#4d4d4d" /></g><g
                       transform="translate(186.96481,24.089911)"
                       id="g5"
                       style="fill:#4d4d4d"><svg
                         viewBox="0 0 395.52 103.63035"
                         height="103.63035"
                         width="395.51999"
                         version="1.1"
                         id="svg4"
                         style="fill:#4d4d4d"><g
                           id="textblocktransform"
                           style="fill:#4d4d4d"><svg
                             viewBox="0 0 395.52 103.63035"
                             height="103.63035"
                             width="395.51999"
                             id="textblock"
                             version="1.1"
                             style="fill:#4d4d4d"><g
                               id="g4"
                               style="fill:#4d4d4d"><svg
                                 viewBox="0 0 395.52 103.63035"
                                 height="103.63035"
                                 width="395.51999"
                                 version="1.1"
                                 id="svg3"
                                 style="fill:#4d4d4d"><g
                                   id="g3"
                                   style="fill:#4d4d4d"><svg
                                   width="395.51999"
                                   viewBox="-0.050000004 -35.91 167.52448 43.380001"
                                   height="103.63035"
                                   data-palette-color="#000000"
                                   version="1.1"
                                   id="svg2"
                                   style="fill:#4d4d4d"><g
                                   class="wordmark-text-0"
                                   data-fill-palette-color="primary"
                                   id="text-0"
                                   style="fill:#4d4d4d"><path
                                   d="m 25.68,-35.16 h 6.84 L 21.14,-14.77 V 0 h -9.69 v -14.23 l -11.5,-20.93 h 9.89 l 7.64,17.68 z m 44.19,18.34 v 0 0.46 q -0.05,2.05 -0.43,4.25 -0.38,2.2 -1.06,4.4 -0.68,2.19 -1.63,4.34 -0.96,2.15 -2.14,4.11 -1.18,1.97 -2.55,3.69 -1.37,1.72 -2.88,3.04 v 0 l -3.64,-2.1 q 0.85,-1.44 1.55,-3.14 0.7,-1.69 1.26,-3.55 0.56,-1.85 0.96,-3.81 0.4,-1.95 0.67,-3.88 0.27,-1.93 0.41,-3.8 0.13,-1.86 0.13,-3.55 v 0 q 0,-1.32 -0.01,-2.99 -0.01,-1.67 -0.2,-3.4 -0.18,-1.74 -0.6,-3.39 -0.41,-1.64 -1.23,-2.94 -0.82,-1.29 -2.1,-2.07 -1.28,-0.78 -3.18,-0.78 v 0 q -1.69,0 -2.9,0.57 -1.21,0.57 -2.05,1.54 -0.84,0.96 -1.34,2.23 -0.5,1.27 -0.78,2.68 -0.28,1.4 -0.37,2.83 -0.08,1.43 -0.08,2.7 v 0 6.81 H 56.2 v 4.03 H 45.68 V 0 h -9.7 v -17.87 q 0,-3.83 1.22,-7.13 1.23,-3.3 3.46,-5.73 2.23,-2.42 5.37,-3.8 3.14,-1.38 6.99,-1.38 v 0 q 2.62,0 4.9,0.74 2.28,0.75 4.16,2.05 1.88,1.31 3.36,3.1 1.48,1.8 2.47,3.92 0.98,2.13 1.5,4.49 0.51,2.37 0.46,4.79 z m 15.99,1.49 V 0 h -9.69 v -35.16 h 9.69 V -19.8 H 98.7 v -15.36 h 9.69 V 0 H 98.7 v -15.33 z m 40.18,-19.83 V 0 h -9.69 v -35.16 z m 41.43,18.34 v 0 0.46 q -0.05,2.05 -0.43,4.25 -0.38,2.2 -1.06,4.4 -0.68,2.19 -1.63,4.34 -0.96,2.15 -2.14,4.11 -1.18,1.97 -2.55,3.69 -1.37,1.72 -2.88,3.04 v 0 l -3.64,-2.1 q 0.85,-1.44 1.55,-3.14 0.7,-1.69 1.26,-3.55 0.56,-1.85 0.96,-3.81 0.4,-1.95 0.67,-3.88 0.27,-1.93 0.41,-3.8 0.13,-1.86 0.13,-3.55 v 0 q 0,-1.32 -0.01,-2.99 -0.01,-1.67 -0.2,-3.4 -0.18,-1.74 -0.6,-3.39 -0.41,-1.64 -1.23,-2.94 -0.82,-1.29 -2.1,-2.07 -1.28,-0.78 -3.18,-0.78 v 0 q -1.69,0 -2.9,0.57 -1.21,0.57 -2.05,1.54 -0.84,0.96 -1.34,2.23 -0.5,1.27 -0.78,2.68 -0.28,1.4 -0.37,2.83 -0.08,1.43 -0.08,2.7 v 0 6.81 h 10.52 v 4.03 H 143.28 V 0 h -9.7 v -17.87 q 0,-3.83 1.22,-7.13 1.23,-3.3 3.46,-5.73 2.23,-2.42 5.37,-3.8 3.14,-1.38 6.99,-1.38 v 0 q 2.62,0 4.9,0.74 2.28,0.75 4.16,2.05 1.88,1.31 3.36,3.1 1.48,1.8 2.47,3.92 0.98,2.13 1.5,4.49 0.51,2.37 0.46,4.79 z"
                                   fill="#000000"
                                   data-fill-palette-color="primary"
                                   id="path1"
                                   style="fill:#4d4d4d" /></g></svg></g></svg></g></svg></g></svg></g><g
                       id="g7"
                       style="fill:#4d4d4d"><svg
                         viewBox="0 0 128.69004 151.81017"
                         height="151.81017"
                         width="128.69005"
                         version="1.1"
                         id="svg6"
                         style="fill:#4d4d4d"><g
                           id="g6"
                           style="fill:#4d4d4d"><svg
                             xml:space="preserve"
                             viewBox="11.853777 5.000308 76.292229 89.998695"
                             x="0"
                             y="0"
                             height="151.81017"
                             width="128.69005"
                             class="icon-icon-0"
                             data-fill-palette-color="accent"
                             id="icon-0"
                             version="1.1"
                             style="fill:#4d4d4d"><path
                               d="m 31.517,28.822 c 0.652,0.045 1.114,1.496 1.292,1.878 0.107,0.232 0.335,0.123 0.315,-0.029 0,0 -0.063,-0.876 -0.119,-2.006 C 32.99,28.647 32.966,28.63 32.954,28.608 32.695,28.173 31.855,27.801 31.04,27.801 h -0.587 c -0.324,0 -0.85,0.251 -1.067,0.631 -0.539,0.943 -0.661,2.305 -0.442,4.426 0.011,0.117 0.294,2.833 0.829,4.089 0.372,0.873 1.061,1.563 1.957,1.972 0.127,0.777 0.325,1.804 0.606,2.769 0.831,2.855 5.102,8.047 10.65,8.224 0.141,0.006 0.461,0.006 0.779,0.006 l 0.725,-0.002 c 5.573,-0.055 10.031,-5.384 10.858,-8.228 0.283,-0.969 0.48,-1.993 0.607,-2.769 0.896,-0.409 1.584,-1.099 1.957,-1.974 0.533,-1.254 0.817,-3.97 0.829,-4.085 0.221,-2.139 0.093,-3.504 -0.456,-4.446 -0.222,-0.38 -0.743,-0.636 -1.064,-0.628 -0.289,0.006 -0.578,0.016 -0.578,0.016 -0.815,0 -1.655,0.372 -1.914,0.807 -0.007,0.012 -0.021,0.023 -0.031,0.035 a 50,50 0 0 1 -0.136,2.027 c -0.021,0.152 0.207,0.262 0.315,0.029 0.178,-0.382 0.641,-1.833 1.291,-1.878 0.438,-0.021 0.714,0.468 0.789,0.711 0.125,0.407 0.222,1.222 0.047,2.925 -0.152,1.473 -0.467,3.12 -0.699,3.67 -0.147,0.343 -0.418,0.57 -0.81,0.672 -1.105,0.298 -1.354,0.964 -1.404,1.33 -0.129,0.93 -0.359,2.295 -0.715,3.522 -0.59,2.023 -4.312,6.786 -8.855,6.829 -0.225,0.006 -1.23,0.008 -1.506,-0.002 -4.388,-0.139 -8.054,-4.583 -8.707,-6.827 -0.317,-1.091 -0.534,-2.293 -0.669,-3.201 L 33.592,38.13 c -0.048,-0.366 -0.298,-1.032 -1.403,-1.33 -0.391,-0.102 -0.663,-0.329 -0.809,-0.672 -0.233,-0.55 -0.547,-2.197 -0.7,-3.67 -0.174,-1.703 -0.077,-2.518 0.047,-2.925 0.077,-0.243 0.353,-0.732 0.79,-0.711"
                               fill="#000000"
                               data-fill-palette-color="accent"
                               id="path4"
                               style="fill:#4d4d4d" /><path
                               d="M 37.862,17.394 35.992,8.135 C 35.901,7.686 35.511,7.516 35.136,7.782 c -3.391,2.416 -5.735,6.195 -6.215,10.543 -0.102,0.913 -0.527,1.661 -1.064,1.661 -0.538,0 -0.973,0.744 -0.973,1.664 v 2.912 c 0,0.921 0.747,1.667 1.668,1.667 h 0.819 c 0.921,0 1.87,0.448 2.163,0.98 0.105,0.196 0.312,0.368 0.574,0.516 0.377,0.205 0.932,0.612 1.341,0.822 1.529,0.787 5.603,1.354 10.393,1.354 4.79,0 8.864,-0.566 10.393,-1.354 0.409,-0.21 0.964,-0.617 1.341,-0.822 0.263,-0.147 0.47,-0.319 0.574,-0.516 0.293,-0.532 1.242,-0.98 2.164,-0.98 h 0.818 c 0.923,0 1.669,-0.746 1.669,-1.667 V 21.65 c 0,-0.92 -0.436,-1.664 -0.974,-1.664 -0.536,0 -0.963,-0.748 -1.063,-1.661 C 58.285,13.981 55.943,10.2 52.554,7.786 52.179,7.517 51.789,7.689 51.699,8.137 l -1.871,9.257 c -0.361,1.808 -0.85,3.234 -1.086,3.197 -0.235,-0.043 -0.231,-1.549 0.008,-3.37 L 50.066,7.236 C 50.127,6.778 49.838,6.251 49.412,6.077 a 14.92,14.92 0 0 0 -11.13,0 c -0.427,0.17 -0.717,0.699 -0.656,1.155 l 1.316,9.989 c 0.24,1.821 0.243,3.327 0.007,3.37 -0.237,0.037 -0.724,-1.39 -1.087,-3.197 m -24.92,47.87 -1.067,17.723 c -0.171,1.735 0.71,3.144 1.97,3.144 h 35.467 c 0.383,0 0.539,-0.271 0.362,-0.609 A 21.4,21.4 0 0 1 47.24,75.589 c 0,-8.685 5.154,-16.169 12.571,-19.558 0.349,-0.16 0.354,-0.407 0.005,-0.565 l -1.98,-0.907 c -0.562,-0.362 -3.583,-3.446 -3.583,-3.446 -0.27,-0.315 -0.593,-0.507 -0.847,-0.476 -0.27,0.01 -0.472,0.246 -0.477,0.83 v 0.121 c 0.511,5.035 -18.686,5.035 -18.175,0 l -10e-4,-0.121 c -0.004,-0.584 -0.208,-0.82 -0.476,-0.83 -0.255,-0.031 -0.578,0.16 -0.848,0.476 l -3.608,3.489 c -0.238,0.153 -14.398,6.543 -14.398,6.543 -1.197,0.54 -2.309,2.382 -2.481,4.119 m 7.418,-3.176 c 0,-0.444 0.329,-0.946 0.734,-1.12 l 5.236,-2.25 c 0.405,-0.175 0.734,0.043 0.734,0.487 v 19.303 a 0.8,0.8 0 0 1 -0.799,0.805 h -5.107 a 0.8,0.8 0 0 1 -0.799,-0.805 z"
                               fill="#000000"
                               data-fill-palette-color="accent"
                               id="path5"
                               style="fill:#4d4d4d" /><path
                               d="m 68.732,56.174 c -10.721,0 -19.412,8.694 -19.412,19.413 0,10.723 8.691,19.412 19.412,19.412 10.724,0 19.414,-8.689 19.414,-19.412 0,-10.719 -8.69,-19.413 -19.414,-19.413"
                               fill="#000000"
                               data-fill-palette-color="accent"
                               id="path6"
                               sodipodi:nodetypes="csssc"
                               style="fill:#4d4d4d" /></svg></g></svg></g></svg></g><defs
                   id="defs8" /></svg><rect
                 width="395.51999"
                 height="103.08244"
                 fill="none"
                 stroke="none"
                 visibility="hidden"
                 id="rect8"
                 x="0"
                 y="0" /></g><text
               xml:space="preserve"
               style="font-weight:bold;font-size:105.238px;font-family:Cambria;-inkscape-font-specification:'Cambria Bold';text-align:end;text-anchor:end;fill:#ffffff;stroke-width:3.9464"
               x="222.72128"
               y="208.42885"
               id="text2"
               transform="scale(0.58108183,1.720928)"><tspan
                 sodipodi:role="line"
                 id="tspan2"
                 x="222.72128"
                 y="208.42885"
                 style="font-size:105.238px;stroke-width:3.9464;fill:#ffffff">B</tspan></text></svg></g></g></g></g></svg>
