<?xml version="1.0" encoding="UTF-8" standalone="no"?>
<svg
   aria-hidden="true"
   role="img"
   class="iconify iconify--logos"
   width="31.88"
   height="32"
   preserveAspectRatio="xMidYMid meet"
   viewBox="0 0 256 257"
   version="1.1"
   id="svg20"
   sodipodi:docname="vite.svg"
   xml:space="preserve"
   inkscape:version="1.2.1 (9c6d41e410, 2022-07-14)"
   xmlns:inkscape="http://www.inkscape.org/namespaces/inkscape"
   xmlns:sodipodi="http://sodipodi.sourceforge.net/DTD/sodipodi-0.dtd"
   xmlns="http://www.w3.org/2000/svg"
   xmlns:svg="http://www.w3.org/2000/svg"><sodipodi:namedview
     id="namedview22"
     pagecolor="#ffffff"
     bordercolor="#000000"
     borderopacity="0.25"
     inkscape:showpageshadow="2"
     inkscape:pageopacity="0.0"
     inkscape:pagecheckerboard="0"
     inkscape:deskcolor="#d1d1d1"
     showgrid="false"
     inkscape:zoom="8.828125"
     inkscape:cx="9.2884956"
     inkscape:cy="7.9292035"
     inkscape:window-width="1304"
     inkscape:window-height="745"
     inkscape:window-x="-8"
     inkscape:window-y="-8"
     inkscape:window-maximized="1"
     inkscape:current-layer="svg20" /><defs
     id="defs14"><linearGradient
       id="IconifyId1813088fe1fbc01fb466"
       x1="-.828%"
       x2="57.636%"
       y1="7.652%"
       y2="78.411%"><stop
         offset="0%"
         stop-color="#41D1FF"
         id="stop2" /><stop
         offset="100%"
         stop-color="#BD34FE"
         id="stop4" /></linearGradient><linearGradient
       id="IconifyId1813088fe1fbc01fb467"
       x1="43.376%"
       x2="50.316%"
       y1="2.242%"
       y2="89.03%"><stop
         offset="0%"
         stop-color="#FFEA83"
         id="stop7" /><stop
         offset="8.333%"
         stop-color="#FFDD35"
         id="stop9" /><stop
         offset="100%"
         stop-color="#FFA800"
         id="stop11" /></linearGradient></defs><g
     id="g788"
     transform="translate(0,3.2845812)"><path
       style="fill:#165044;stroke-width:0.658922"
       d="M 12.68849,125.21542 V -6.5691624 H 128 243.31151 V 125.21542 257 H 128 12.68849 Z m 163.00222,81.06835 c 8.75211,-2.23841 14.98043,-5.96793 22.54262,-13.49847 5.56373,-5.54047 7.09316,-7.53239 9.38307,-12.22032 4.8646,-9.95872 5.85459,-17.29197 3.40506,-25.22257 -2.32437,-7.52541 -7.99921,-11.61634 -17.45863,-12.58569 -2.17445,-0.22285 -12.40421,-0.70974 -22.73283,-1.08207 -19.1312,-0.68953 -23.09099,-1.0039 -23.02529,-1.82797 0.0627,-0.78654 7.61112,-6.88509 12.57963,-10.16342 6.07453,-4.00815 16.44955,-8.33405 27.2482,-11.36122 4.71128,-1.32068 10.10227,-2.83268 11.97994,-3.35998 3.30167,-0.92716 3.45982,-1.08129 4.80872,-4.68657 2.53466,-6.77447 4.60171,-6.20944 -24.01796,-6.56536 -13.76111,-0.17117 -25.16034,-0.45133 -25.33165,-0.6226 -0.17126,-0.1713 1.48651,-2.15654 3.68396,-4.41169 4.43014,-4.5464 7.63792,-9.136494 12.43292,-17.790551 3.68542,-6.651503 6.81313,-10.360405 8.73685,-10.360405 1.69223,0 4.04055,3.688695 4.49231,7.056418 0.57311,4.272158 0.91205,5.463135 1.55475,5.463135 1.10733,0 2.19351,-5.467863 2.18914,-11.020257 -0.003,-4.456186 -0.29186,-5.978218 -1.62227,-8.563422 -1.94309,-3.775821 -4.2245,-4.906397 -6.66877,-3.304804 -0.88241,0.578196 -4.75393,5.77824 -8.60337,11.555688 -9.93365,14.909018 -14.71291,19.260138 -31.55371,28.726988 -3.82401,2.14962 -6.64766,6.57492 -6.72113,10.53362 l -0.0503,2.71208 15.48468,0.46721 c 8.51659,0.25701 16.79633,0.5535 18.39944,0.65889 l 2.91477,0.19174 -4.89153,2.90265 c -6.63382,3.93649 -13.82927,9.90789 -17.82724,14.79452 -5.11067,6.24656 -5.42043,6.44438 -8.43008,5.38251 -6.72967,-2.37438 -10.3863,-5.40811 -14.92617,-12.38361 -3.22406,-4.95374 -5.01254,-6.12515 -8.38553,-5.49238 -5.73863,1.07655 -17.546528,11.75141 -21.09502,19.07079 -3.423664,7.0619 -4.603764,15.88533 -2.669748,19.96101 1.602757,3.37755 5.378079,5.18075 17.078348,8.15705 10.54836,2.6833 12.51834,3.56685 11.84128,5.311 -0.55941,1.44102 -12.07433,8.80764 -19.9699,12.77563 -27.404172,13.77229 -45.374846,13.4106 -52.757719,-1.06183 -3.752651,-7.35622 -3.554602,-15.66059 0.650751,-27.2826 1.985638,-5.48764 2.044288,-5.56451 4.243975,-5.56451 1.918451,0 2.403451,-0.34569 3.466646,-2.47094 0.679866,-1.35903 1.431726,-3.49449 1.670825,-4.74543 l 0.434707,-2.2745 -1.921746,1.84114 c -4.462679,4.27553 -6.210545,0.14419 -3.995904,-9.44482 0.799927,-3.46346 1.588748,-6.74197 1.752928,-7.28557 0.195441,-0.64713 -0.05368,-0.55729 -0.721289,0.26009 -2.261584,2.76867 -4.643242,11.70486 -4.760122,17.86031 -0.09548,5.02794 -0.410041,6.58196 -2.067638,10.21324 -3.56163,7.8025 -4.45009,12.47268 -4.45009,23.39178 0,9.39138 0.08972,10.07544 1.801508,13.72925 2.784875,5.9445 5.321844,8.6975 10.249328,11.1221 4.280402,2.10616 4.621171,2.1635 12.647142,2.12773 7.732182,-0.0345 8.701606,-0.19014 15.496329,-2.48847 18.807449,-6.36173 37.306869,-18.47201 41.589759,-27.22593 2.23061,-4.55923 2.57012,-10.7944 0.73982,-13.58807 -1.63364,-2.49356 -3.64075,-3.36969 -14.73164,-6.43066 -14.180329,-3.91358 -16.626696,-5.59431 -14.402687,-9.89509 2.758854,-5.33508 15.777717,-15.38967 19.393397,-14.97775 1.02818,0.11708 2.42779,1.26686 3.83415,3.14959 4.50159,6.02648 8.26092,9.29476 13.5267,11.75957 l 5.14276,2.40729 -0.32319,2.30621 c -0.17776,1.26841 -0.83915,4.53011 -1.46982,7.24815 -1.52805,6.5858 -1.55284,20.97569 -0.0468,27.15494 2.04243,8.37975 6.18461,14.61926 11.94715,17.99634 6.94012,4.06717 19.03345,5.33732 28.28622,2.97087 z m -19.19153,-10.90385 c -13.33525,-2.89686 -19.41427,-12.1976 -18.43257,-28.20131 0.34411,-5.60911 3.03889,-16.39394 4.28948,-17.16683 0.26286,-0.16247 3.5895,0.11574 7.39251,0.61836 3.80301,0.50253 10.621,0.92432 15.15108,0.93726 15.48829,0.0444 29.85696,1.1717 33.81637,2.65304 3.80407,1.42329 8.47192,5.72522 9.69078,8.93102 1.04721,2.75438 0.7349,6.6847 -0.78867,9.92602 -3.02523,6.43587 -13.56186,15.37699 -23.03844,19.54982 -8.18036,3.60207 -19.19838,4.68212 -28.08054,2.75262 z m 4.30319,-25.98684 c 1.34751,-2.15802 2.66716,-3.9371 2.93259,-3.95352 0.26543,-0.0165 2.42038,1.15628 4.78881,2.60592 2.3684,1.44959 4.67164,2.62954 5.11825,2.62201 1.05296,-0.0178 6.57721,-8.41232 6.07292,-9.22825 -0.40299,-0.65209 -9.0106,-5.91332 -9.67438,-5.91332 -0.21085,0 -1.52791,1.77653 -2.92684,3.9478 -1.39891,2.17128 -2.90222,3.95035 -3.34066,3.95352 -0.43844,0.003 -2.66229,-1.17746 -4.94192,-2.62366 -2.27961,-1.44614 -4.50628,-2.63226 -4.94816,-2.6357 -0.71372,-0.005 -5.06721,6.11998 -5.90945,8.31486 -0.33136,0.86349 7.91675,6.75108 9.53422,6.80563 0.46454,0.0156 1.94712,-1.73723 3.29462,-3.89529 z m -84.139067,0.87757 c 1.819554,-6.88782 2.629463,-8.14689 4.504101,-7.00237 2.261277,1.38061 3.343683,1.02283 3.343683,-1.10529 0,-2.52827 -2.843692,-4.94798 -4.667783,-3.97172 -1.571327,0.84094 -2.50457,2.56468 -4.224243,7.80236 l -1.381574,4.20788 -2.071894,-4.20788 c -1.289655,-2.61927 -2.803739,-4.63997 -4.010333,-5.35232 -1.867763,-1.10271 -2.001282,-1.09498 -3.663519,0.21256 -2.977811,2.34232 -1.616405,5.87379 2.264409,5.87379 1.638709,0 2.160516,0.47741 3.576994,3.27269 0.912128,1.80002 1.658414,3.55981 1.658414,3.91062 0,0.35088 0.318648,1.47268 0.708137,2.49286 0.667853,1.74938 0.759042,1.78565 1.602424,0.6373 0.491863,-0.66972 1.554394,-3.71643 2.361184,-6.77048 z M 202.9525,136.42441 c 2.09233,-1.27577 3.03152,-3.12546 1.23733,-2.43698 -1.92243,0.73773 -7.06371,1.23949 -8.64179,0.84347 -2.54843,-0.63965 -2.03924,-2.43012 1.96834,-6.9215 3.90868,-4.38057 4.32882,-5.56503 2.34955,-6.62426 -2.65341,-1.42006 -7.29147,-0.37224 -7.29147,1.64729 0,0.68678 0.76027,0.96522 2.63568,0.96522 3.23632,0 3.40053,1.00306 0.60009,3.66553 -3.55928,3.38398 -4.93708,7.54806 -3.10399,9.38115 1.30009,1.30005 7.80234,0.97012 10.24626,-0.51992 z M 73.090157,125.38021 c 0.948463,-2.45813 1.20763,-4.96833 1.20763,-11.69588 0,-8.37346 -0.05061,-8.67397 -2.251565,-13.37031 -2.426557,-5.17777 -3.790047,-5.88747 -4.953775,-2.5785 -0.67947,1.93206 -0.708967,1.82554 2.681992,9.68904 1.58508,3.67575 1.849818,5.17049 1.867275,10.54276 0.0115,3.44289 -0.194597,7.22348 -0.457354,8.40127 -0.718579,3.22129 0.531777,2.57282 1.905797,-0.98838 z M 89.01828,109.74928 c 6.90323,-2.84346 11.10499,-5.5264 14.60984,-9.32868 3.35249,-3.63705 4.81291,-6.82833 6.56654,-14.349099 1.96268,-8.417451 2.80724,-9.553151 5.3757,-7.228686 1.10281,0.997989 1.23406,0.955621 1.95741,-0.631951 0.63586,-1.395569 0.57798,-2.002879 -0.32173,-3.375979 -2.60994,-3.98329 -6.10054,-0.970051 -7.92222,6.838917 -1.15359,4.944905 -1.50025,5.428674 -2.1003,2.930945 -1.13493,-4.724183 -4.2204,-8.808464 -6.65435,-8.808464 -1.116425,0 -1.848897,0.641242 -2.649053,2.319199 -1.035795,2.172095 -1.035564,2.389557 0.0038,3.428649 0.610186,0.610173 1.928061,1.123226 2.928643,1.140134 1.49929,0.02518 2.09051,0.577494 3.36174,3.139843 0.84835,1.710065 1.70514,4.321896 1.90394,5.804142 0.32216,2.40197 0.12117,2.94288 -1.84976,4.97631 -1.21619,1.25477 -6.743063,5.11187 -12.281999,8.57134 -5.538731,3.45942 -10.070592,6.41843 -10.070592,6.57553 0,0.67744 1.99516,0.11823 7.142907,-2.00215 z m 36.18053,-12.56214 c 1.64679,-1.15348 3.08531,-5.6728 2.52116,-7.920648 -0.20818,-0.829415 -1.15165,-2.426887 -2.09666,-3.549945 -1.40973,-1.675387 -1.64096,-2.453267 -1.28817,-4.333772 1.04223,-5.555474 -2.34141,-0.373374 -4.49742,6.887906 -1.08382,3.650279 -1.41535,8.697649 -0.62336,9.489699 0.80721,0.80722 4.52154,0.45144 5.98445,-0.57324 z m -4.44697,-5.09512 c 0,-3.338581 1.25603,-4.074996 3.65321,-2.141999 1.73161,1.396309 1.83801,1.680309 0.95925,2.560479 -0.5436,0.54448 -1.80379,1.18989 -2.80041,1.43421 -1.71518,0.42052 -1.81205,0.32154 -1.81205,-1.85269 z m 86.94842,0.30375 c 1.4658,-2.46734 2.66512,-4.7702 2.66512,-5.117473 0,-0.347261 -1.65121,-1.618982 -3.66932,-2.826074 -2.01812,-1.207105 -3.83271,-2.62049 -4.03238,-3.140841 -0.19971,-0.520402 0.66196,-2.49308 1.91476,-4.383745 4.30551,-6.497624 4.33895,-5.923991 -0.52303,-8.972441 -2.3699,-1.485915 -4.66242,-2.689582 -5.09451,-2.674808 -0.8183,0.02787 -6.38644,8.506574 -6.38644,9.724543 0,0.382767 1.77908,1.776687 3.95354,3.097592 2.17443,1.320878 3.95352,2.683946 3.95352,3.028985 0,0.345051 -1.18605,2.505374 -2.63567,4.800707 -1.44964,2.295307 -2.63571,4.519471 -2.63571,4.942485 0,0.84176 7.74888,5.99073 9.03076,6.00087 0.43684,0.003 1.99354,-2.0125 3.45936,-4.4798 z M 142.90663,68.199856 c 3.91724,-1.641149 16.32434,-6.56384 27.57135,-10.939252 11.24706,-4.375438 20.99843,-8.443349 21.66975,-9.039834 1.39968,-1.243696 3.3095,-4.684295 2.85332,-5.14046 -0.16844,-0.168436 -4.56389,1.320392 -9.76768,3.308497 -5.20381,1.988104 -15.83654,6.046966 -23.6283,9.019716 -15.62625,5.961745 -24.3029,9.781864 -25.4803,11.218331 -1.10844,1.35237 -1.81828,4.556961 -1.00938,4.556961 0.36797,0 3.87402,-1.342772 7.79124,-2.983959 z"
       id="path479"
       sodipodi:nodetypes="cccccccccssssscssscsscsssssccssssccccscssssssscssssscssscssscscssscsccscscsssssssscsssssscssssscscscsssssscsscsssssscscscsssscsssssccscsscsscssscccsscsccsssssssssscssssssscssssscscsssscssc" /><text
       xml:space="preserve"
       style="font-style:normal;font-variant:normal;font-weight:normal;font-stretch:normal;font-size:37.3409px;font-family:Bahnschrift;-inkscape-font-specification:Bahnschrift;text-align:center;text-anchor:middle;fill:#ffffff;stroke-width:6.64668;stop-color:#000000"
       x="128.63815"
       y="240.9375"
       id="text582"><tspan
         sodipodi:role="line"
         id="tspan580"
         style="font-size:37.3409px;fill:#ffffff;stroke-width:6.64668"
         x="128.63815"
         y="240.9375">YAHIA</tspan></text></g></svg>
